<svg xmlns="http://www.w3.org/2000/svg" viewBox="0 0 510.06 219.45"><defs><style>.cls-1{fill:#cd1517;}.cls-2{fill:#ffffff;}</style></defs><g id="Capa_2" data-name="Capa 2"><g id="Capa_1-2" data-name="Capa 1"><line class="cls-1" x1="321.85" y1="198.5" x2="321.85" y2="198.49"/><path class="cls-1" d="M269.35,16.5h0a109.11,109.11,0,0,0-12,25.23s0,0,0,0a109.11,109.11,0,0,0-12-25.26L257.36,0Z"/><line class="cls-1" x1="192.86" y1="198.5" x2="192.86" y2="198.49"/><line class="cls-1" x1="361.71" y1="75.82" x2="361.71" y2="75.82"/><line class="cls-1" x1="361.71" y1="75.82" x2="361.71" y2="75.82"/><line class="cls-1" x1="361.76" y1="75.83" x2="361.72" y2="75.82"/><line class="cls-1" x1="361.75" y1="75.81" x2="361.72" y2="75.82"/><line class="cls-1" x1="361.74" y1="75.79" x2="361.72" y2="75.82"/><polyline class="cls-1" points="321.84 20.95 321.85 20.95 321.85 20.96 321.86 20.96"/><path class="cls-1" d="M361.71,75.82l-12,16.52a109.89,109.89,0,0,0-27.81-3.57l0,0h0a109.86,109.86,0,0,0,20.36-19.24Z"/><line class="cls-1" x1="321.86" y1="20.96" x2="321.85" y2="20.96"/><polyline class="cls-1" points="321.88 20.95 321.86 20.96 321.86 20.96"/><polyline class="cls-1" points="321.87 20.94 321.86 20.95 321.86 20.96"/><polyline class="cls-1" points="321.86 20.96 321.86 20.95 321.86 20.93"/><polyline class="cls-1" points="321.84 20.95 321.85 20.95 321.85 20.96"/><line class="cls-1" x1="257.36" x2="257.35"/><line class="cls-1" x1="192.86" y1="20.96" x2="192.86" y2="20.95"/><polyline class="cls-1" points="192.86 20.93 192.86 20.95 192.86 20.96"/><polyline class="cls-1" points="192.84 20.94 192.86 20.95 192.86 20.96"/><line class="cls-1" x1="192.85" y1="20.96" x2="192.83" y2="20.95"/><line class="cls-1" x1="153" y1="75.82" x2="153" y2="75.82"/><line class="cls-1" x1="153" y1="75.82" x2="153" y2="75.82"/><line class="cls-1" x1="192.86" y1="20.96" x2="192.86" y2="20.95"/><line class="cls-1" x1="153" y1="75.82" x2="152.97" y2="75.77"/><line class="cls-1" x1="153" y1="75.82" x2="152.97" y2="75.8"/><line class="cls-1" x1="153" y1="75.82" x2="152.95" y2="75.83"/><line class="cls-1" x1="153" y1="75.82" x2="153" y2="75.82"/><line class="cls-1" x1="192.86" y1="198.5" x2="192.86" y2="198.49"/><line class="cls-1" x1="153" y1="75.82" x2="153" y2="75.82"/><line class="cls-1" x1="153" y1="143.64" x2="152.95" y2="143.62"/><line class="cls-1" x1="153" y1="143.64" x2="152.97" y2="143.65"/><line class="cls-1" x1="153" y1="143.64" x2="152.97" y2="143.68"/><line class="cls-1" x1="192.86" y1="198.53" x2="192.86" y2="198.5"/><line class="cls-1" x1="192.86" y1="198.5" x2="192.86" y2="198.49"/><line class="cls-1" x1="192.86" y1="198.49" x2="192.86" y2="198.49"/><line class="cls-1" x1="192.86" y1="198.5" x2="192.86" y2="198.49"/><line class="cls-1" x1="192.86" y1="198.5" x2="192.86" y2="198.49"/><line class="cls-1" x1="192.86" y1="198.5" x2="192.83" y2="198.5"/><line class="cls-1" x1="192.86" y1="198.5" x2="192.84" y2="198.52"/><line class="cls-1" x1="321.86" y1="198.49" x2="321.85" y2="198.49"/><line class="cls-1" x1="192.86" y1="198.49" x2="192.86" y2="198.49"/><polyline class="cls-1" points="321.86 198.53 321.86 198.5 321.86 198.5"/><polyline class="cls-1" points="321.87 198.52 321.86 198.5 321.86 198.5"/><polyline class="cls-1" points="321.86 198.5 321.86 198.5 321.88 198.5"/><line class="cls-1" x1="321.86" y1="198.49" x2="321.85" y2="198.49"/><line class="cls-1" x1="321.85" y1="198.5" x2="321.85" y2="198.49"/><line class="cls-1" x1="321.85" y1="198.5" x2="321.85" y2="198.49"/><path class="cls-1" d="M321.85,21V41.35a109.89,109.89,0,0,0-24.56,13.42s0,0,0,0h0a109.79,109.79,0,0,0,5.11-27.47Z"/><path class="cls-1" d="M269.35,203l-12,16.49h0l-12-16.5a109.18,109.18,0,0,0,12-25.27s0,0,0,0a109.37,109.37,0,0,0,12,25.24Z"/><path class="cls-1" d="M217.43,164.67s0,0,0,0v0a110.07,110.07,0,0,0-5.11,27.46h0l-19.43,6.32h0V178.09A108.91,108.91,0,0,0,217.43,164.67Z"/><path class="cls-1" d="M192.81,130.68l0,0h0a110.08,110.08,0,0,0-20.35,19.23L153,143.64l12-16.52A109.89,109.89,0,0,0,192.81,130.68Z"/><path class="cls-1" d="M192.81,88.77A110.34,110.34,0,0,0,165,92.33h0L153,75.82l19.43-6.31a109.69,109.69,0,0,0,20.34,19.23h0Z"/><path class="cls-1" d="M217.42,54.77a109.24,109.24,0,0,0-24.56-13.42V21l19.44,6.31a110.15,110.15,0,0,0,5.11,27.47h0S217.42,54.76,217.42,54.77Z"/><line class="cls-1" x1="321.85" y1="198.5" x2="321.85" y2="198.49"/><line class="cls-1" x1="361.74" y1="143.67" x2="361.72" y2="143.64"/><line class="cls-1" x1="361.75" y1="143.65" x2="361.72" y2="143.64"/><line class="cls-1" x1="361.76" y1="143.62" x2="361.72" y2="143.64"/><line class="cls-1" x1="361.71" y1="75.82" x2="361.71" y2="75.82"/><path class="cls-1" d="M361.71,143.63h0l-19.42,6.3a109.83,109.83,0,0,0-20.36-19.23l0,0a109.44,109.44,0,0,0,27.81-3.57Z"/><path class="cls-1" d="M321.85,178.09v20.4h0l-19.43-6.32h0a109.79,109.79,0,0,0-5.11-27.47h0v0A109.86,109.86,0,0,0,321.85,178.09Z"/><polyline class="cls-1" points="321.85 198.5 321.85 198.49 321.86 198.49"/><path class="cls-2" d="M228.3,148.58a1.8,1.8,0,0,1-.43,1.17,3,3,0,0,1-1.4.85,13.43,13.43,0,0,1-2.6.52,36.25,36.25,0,0,1-4.16.19,36.71,36.71,0,0,1-4.14-.19,13.49,13.49,0,0,1-2.63-.52,3,3,0,0,1-1.4-.85,1.75,1.75,0,0,1-.43-1.17V69.05a1.78,1.78,0,0,1,.43-1.17A2.9,2.9,0,0,1,213,67a14,14,0,0,1,2.64-.53,35.59,35.59,0,0,1,4.1-.19,36.25,36.25,0,0,1,4.16.19,13.34,13.34,0,0,1,2.6.53,2.89,2.89,0,0,1,1.4.84,1.84,1.84,0,0,1,.43,1.17Z"/><path class="cls-2" d="M315.63,144.55a21.83,21.83,0,0,1,1,3.71,2.24,2.24,0,0,1-.52,2.05,4.29,4.29,0,0,1-2.54.84c-1.21.11-2.88.16-5,.16s-3.94,0-5.17-.09a13.38,13.38,0,0,1-2.83-.39,2.57,2.57,0,0,1-1.37-.82,4.31,4.31,0,0,1-.65-1.36l-5.66-16.92H261.23l-5.34,16.46a5.16,5.16,0,0,1-.68,1.53,2.86,2.86,0,0,1-1.37,1,10.1,10.1,0,0,1-2.67.48c-1.15.09-2.66.13-4.52.13a43.66,43.66,0,0,1-4.69-.19,3.6,3.6,0,0,1-2.34-.94,2.57,2.57,0,0,1-.46-2.12,21.36,21.36,0,0,1,1-3.64l26-74.72a6.64,6.64,0,0,1,.91-1.79,3.28,3.28,0,0,1,1.66-1,12.82,12.82,0,0,1,3.16-.45c1.34-.07,3.12-.1,5.33-.1q3.84,0,6.12.1a16,16,0,0,1,3.55.45A3.4,3.4,0,0,1,288.66,68a6.22,6.22,0,0,1,.94,2ZM277,82.78h-.07L265,118.58h23.89Z"/><path class="cls-2" d="M76.52,144.55a22.6,22.6,0,0,1,1,3.71,2.24,2.24,0,0,1-.52,2.05,4.29,4.29,0,0,1-2.54.84c-1.21.11-2.88.16-5,.16s-3.94,0-5.17-.09a13.38,13.38,0,0,1-2.83-.39,2.61,2.61,0,0,1-1.37-.82,4.31,4.31,0,0,1-.65-1.36l-5.66-16.92H22.11l-5.34,16.46a5.16,5.16,0,0,1-.68,1.53,2.86,2.86,0,0,1-1.37,1,10.1,10.1,0,0,1-2.67.48c-1.15.09-2.66.13-4.52.13a43.66,43.66,0,0,1-4.69-.19,3.62,3.62,0,0,1-2.34-.94,2.57,2.57,0,0,1-.45-2.12,21.16,21.16,0,0,1,1-3.64L27,69.7a6.64,6.64,0,0,1,.91-1.79,3.28,3.28,0,0,1,1.66-1,12.82,12.82,0,0,1,3.16-.45c1.34-.07,3.12-.1,5.33-.1q3.84,0,6.12.1a16,16,0,0,1,3.55.45A3.4,3.4,0,0,1,49.54,68a6.22,6.22,0,0,1,.94,2ZM37.86,82.78h-.07l-11.91,35.8H49.77Z"/><path class="cls-2" d="M150.77,148.71a2.61,2.61,0,0,1-.26,1.21,2.09,2.09,0,0,1-1.23.81,12,12,0,0,1-2.87.45c-1.26.09-3,.13-5.14.13-1.82,0-3.28,0-4.36-.13a9.81,9.81,0,0,1-2.57-.48,2.84,2.84,0,0,1-1.33-.91,5.08,5.08,0,0,1-.66-1.34l-7.55-18.81q-1.36-3.18-2.66-5.66a18,18,0,0,0-2.9-4.13,10.58,10.58,0,0,0-3.68-2.51,12.79,12.79,0,0,0-4.81-.84h-5.34v32.08a1.79,1.79,0,0,1-.42,1.17,3,3,0,0,1-1.4.85,13.43,13.43,0,0,1-2.6.52,45.42,45.42,0,0,1-8.3,0,13.45,13.45,0,0,1-2.64-.52,2.73,2.73,0,0,1-1.36-.85,1.82,1.82,0,0,1-.4-1.17V72.11A5.18,5.18,0,0,1,89.76,68a5.29,5.29,0,0,1,3.61-1.27h21.8c2.22,0,4,0,5.47.13s2.73.2,3.9.33a35.21,35.21,0,0,1,9.15,2.47,21.91,21.91,0,0,1,6.9,4.59,19,19,0,0,1,4.32,6.7,24.45,24.45,0,0,1,1.5,8.88,26.39,26.39,0,0,1-1.07,7.72,19.79,19.79,0,0,1-3.16,6.21,20.72,20.72,0,0,1-5.14,4.75,27.9,27.9,0,0,1-7,3.26,18.73,18.73,0,0,1,6.67,5.36,31.56,31.56,0,0,1,2.76,4.23,54.34,54.34,0,0,1,2.54,5.37l7.1,16.6c.65,1.65,1.08,2.85,1.3,3.61A7.28,7.28,0,0,1,150.77,148.71ZM128.71,91.57a12.48,12.48,0,0,0-1.89-7,10.26,10.26,0,0,0-6.18-4,23.4,23.4,0,0,0-3-.52,41.52,41.52,0,0,0-4.59-.2h-7.68v23.89h8.72a21.06,21.06,0,0,0,6.38-.88,12.79,12.79,0,0,0,4.56-2.48,10.18,10.18,0,0,0,2.73-3.8A12.88,12.88,0,0,0,128.71,91.57Z"/><path class="cls-2" d="M441.79,144.81a6.49,6.49,0,0,1-.52,2.67,5.6,5.6,0,0,1-1.4,2,5.4,5.4,0,0,1-2.08,1.14,8.88,8.88,0,0,1-2.44.35h-7.29a15.2,15.2,0,0,1-3.94-.45,7.79,7.79,0,0,1-3.06-1.66,14.58,14.58,0,0,1-2.7-3.26c-.87-1.36-1.84-3.13-2.93-5.3l-20.95-39.37c-1.22-2.35-2.45-4.87-3.71-7.59s-2.39-5.34-3.39-7.9h-.13c.18,3.12.31,6.24.39,9.34s.13,6.3.13,9.6v44.06a2.09,2.09,0,0,1-.35,1.17,2.72,2.72,0,0,1-1.24.88,9.88,9.88,0,0,1-2.38.55,30.73,30.73,0,0,1-3.84.19,30.16,30.16,0,0,1-3.77-.19,9.16,9.16,0,0,1-2.34-.55,2.38,2.38,0,0,1-1.17-.88,2.15,2.15,0,0,1-.33-1.17V72.7a5.72,5.72,0,0,1,1.79-4.59,6.52,6.52,0,0,1,4.39-1.53h9.18a17.48,17.48,0,0,1,4.16.42,8.77,8.77,0,0,1,3,1.4,10.8,10.8,0,0,1,2.51,2.7,33.93,33.93,0,0,1,2.4,4.27l16.4,30.78c1,1.87,1.9,3.7,2.84,5.5s1.83,3.6,2.7,5.4,1.71,3.57,2.53,5.3,1.63,3.48,2.41,5.21h.07c-.13-3-.23-6.2-.3-9.5s-.09-6.44-.09-9.44V69.12a1.87,1.87,0,0,1,.39-1.17,3.07,3.07,0,0,1,1.3-.91,8.31,8.31,0,0,1,2.41-.56,36.42,36.42,0,0,1,3.84-.16,35,35,0,0,1,3.71.16,7.21,7.21,0,0,1,2.31.56,2.65,2.65,0,0,1,1.14.91,2.18,2.18,0,0,1,.32,1.17Z"/><path class="cls-2" d="M510.06,144.09a25.34,25.34,0,0,1-.16,3.16,8.11,8.11,0,0,1-.49,2.05,2.7,2.7,0,0,1-.81,1.14,1.79,1.79,0,0,1-1.08.35h-42.3a5.29,5.29,0,0,1-3.61-1.27,5.18,5.18,0,0,1-1.47-4.13V72a5.18,5.18,0,0,1,1.47-4.13,5.29,5.29,0,0,1,3.61-1.27h42a1.72,1.72,0,0,1,1,.33,2.35,2.35,0,0,1,.78,1.13,8.71,8.71,0,0,1,.49,2.09,25.58,25.58,0,0,1,.17,3.22,24.47,24.47,0,0,1-.17,3.09,8,8,0,0,1-.49,2,2.67,2.67,0,0,1-.78,1.14,1.62,1.62,0,0,1-1,.36H477.2v20.56h25.44a1.8,1.8,0,0,1,1.08.36,2.72,2.72,0,0,1,.81,1.11,7.56,7.56,0,0,1,.49,2,26.82,26.82,0,0,1,.16,3.1,26.44,26.44,0,0,1-.16,3.12,7.4,7.4,0,0,1-.49,2,2.48,2.48,0,0,1-.81,1.08,1.9,1.9,0,0,1-1.08.32H477.2v23.76h30.32a1.8,1.8,0,0,1,1.08.36,2.6,2.6,0,0,1,.81,1.13,8.23,8.23,0,0,1,.49,2.05A25.34,25.34,0,0,1,510.06,144.09Z"/></g></g></svg>